The Expendables (2010) DVDSCR XviD-MAX

Format                           : AVI
Format/Info                      : Audio Video Interleave
Format profile                   : OpenDML
File size                        : 1.37 GiB
Duration                         : 1h 38mn
Overall bit rate                 : 1 982 Kbps
Writing application              : VirtualDubMod 1.5.10.2 (build 2542/release)
Writing library                  : VirtualDubMod build 2542/release
Original source form             : MAX TORRENTZ
Copyright                        : SIGISMUNT

Video
ID                               : 0
Format                           : MPEG-4 Visual
Format profile                   : AdvancedSimple@L5
Format settings, BVOP            : Yes
Format settings, QPel            : No
Format settings, GMC             : No warppoints
Format settings, Matrix          : Custom
Codec ID                         : XVID
Codec ID/Hint                    : XviD
Duration                         : 1h 38mn
Bit rate                         : 1 592 Kbps
Width                            : 720 pixels
Height                           : 400 pixels
Display aspect ratio             : 16:9
Frame rate                       : 25.000 fps
Resolution                       : 24 bits
Colorimetry                      : 4:2:0
Scan type                        : Progressive
Bits/(Pixel*Frame)               : 0.221
Stream size                      : 1.10 GiB (80%)
Writing library                  : XviD 1.2.1 (UTC 2008-12-04)

Audio
ID                               : 1
Format                           : AC-3
Format/Info                      : Audio Coding 3
Codec ID                         : 2000
Duration                         : 1h 38mn
Bit rate mode                    : Constant
Bit rate                         : 384 Kbps
Channel(s)                       : 2 channels
Channel positions                : L R
Sampling rate                    : 48.0 KHz
Stream size                      : 271 MiB (19%)
Alignment                        : Aligned on interleaves
Interleave, duration             : 64 ms (1.60 video frames)
Interleave, preload duration     : 192 ms

Source: PAL DVDR + AC3 STUDIO resynced audio (-70ms) , quality-pure as dvdrip
 
http://www.imdb.com/title/tt1320253/

Screens:
 
http://www.postimg.com/image/21000/20589.jpg
 
http://www.postimg.com/image/21000/20590.jpg
 
http://www.postimg.com/image/21000/20591.jpg
 
http://www.postimg.com/image/21000/20592.jpg
 
http://www.postimg.com/image/21000/20593.jpg

ScreenCaps:
 
http://www.postimg.com/image/21000/20594.jpg

The Expendables (2010) DVDSCR XviD-MAX Torrent Free Download
 
http://thepiratebay.org/user/extremezone/0/7

How To Get Your Maxspeed (uTorrent)

Torrent Client - Preferences - Bandwidth - Number of connections - Set aprox. 500 for each 
Torrent Client - Preferences - BiTorrent - Protocol Encryption - Forced
Bandwidth Allocation - High (Set download/upload limit - Unlimited)
Stop Other Active Torrents - Start downloading and wait for connections.
Enjoy and Seed for at least 1:1 ratio. Don't forget to say thanks/leave reviews.
Greets to all actual/future p2p/scene quality groups and affiliate websites.
Don't trust IMDb robot or bad ratings,always watch some trailers first.
Ignore stupid comments/fake/mislabeled/no-dvdrip/CAM/TS/RAR uploads.
Please report if you see online streaming or other spam links.
If you need translation subs visit some subtitles sites.
Also spread this link to your friends.
Recommended movie player VLC PLAYER.